<svg width="44" height="44" viewBox="0 0 44 44" fill="none" xmlns="http://www.w3.org/2000/svg">
<path d="M19.875 2.34377C21.422 1.4506 23.328 1.4506 24.875 2.34377L38.4945 10.207C40.0415 11.1002 40.9945 12.7508 40.9945 14.5371V30.2636C40.9945 32.05 40.0415 33.7006 38.4945 34.5938L24.875 42.457C23.328 43.3502 21.422 43.3502 19.875 42.457L6.25545 34.5938C4.70845 33.7006 3.75545 32.05 3.75545 30.2636V14.5371C3.75545 12.7508 4.70845 11.1002 6.25545 10.207L19.875 2.34377Z" fill="url(#paint0_linear_2093_440)"/>
<path d="M25.5145 19.2584C25.5145 20.9894 24.1027 22.4012 22.3717 22.4012C20.6406 22.4012 19.2288 20.9894 19.2288 19.2584C19.2288 17.5273 20.6406 16.1155 22.3717 16.1155C24.1027 16.1155 25.5145 17.5273 25.5145 19.2584ZM28.6574 19.2584C28.6574 15.784 25.846 12.9727 22.3717 12.9727C18.8973 12.9727 16.0859 15.784 16.0859 19.2584C16.0859 20.0073 16.1719 20.7807 16.4911 21.4559L20.9721 30.9581C21.2176 31.4983 21.7824 31.8298 22.3717 31.8298C22.9609 31.8298 23.5257 31.4983 23.7835 30.9581L28.2522 21.4559C28.5714 20.7807 28.6574 20.0073 28.6574 19.2584Z" fill="white"/>
<defs>
<linearGradient id="paint0_linear_2093_440" x1="22.375" y1="0.900391" x2="22.375" y2="43.9004" gradientUnits="userSpaceOnUse">
<stop offset="0.5" stop-color="#09B4C5"/>
<stop offset="0.53125" stop-color="#00A5B5"/>
</linearGradient>
</defs>
</svg>
