<svg width="44" height="44" viewBox="0 0 44 44" fill="none" xmlns="http://www.w3.org/2000/svg">
<path d="M19.4141 1.49806C20.9611 0.604899 22.8671 0.604899 24.4141 1.49806L38.0336 9.36131C39.5806 10.2545 40.5336 11.9051 40.5336 13.6914V29.4179C40.5336 31.2043 39.5806 32.8549 38.0336 33.7481L24.4141 41.6113C22.8671 42.5045 20.9611 42.5045 19.4141 41.6113L5.79452 33.7481C4.24751 32.8549 3.29452 31.2043 3.29452 29.4179V13.6914C3.29452 11.9051 4.24751 10.2545 5.79452 9.36131L19.4141 1.49806Z" fill="url(#paint0_linear_2093_455)"/>
<path d="M31.0748 26.1244C31.0748 26.0385 31.0748 25.9526 31.0379 25.8666C30.952 25.6088 30.3504 25.3387 30.1049 25.216C29.4051 24.8231 28.6931 24.4425 28.0056 24.0374C27.6864 23.841 27.2935 23.4727 26.9129 23.4727C26.1641 23.4727 25.0714 25.6948 24.4085 25.6948C24.077 25.6948 23.6473 25.3878 23.3527 25.216C21.1183 23.976 19.5714 22.4291 18.3315 20.1948C18.1596 19.9001 17.8527 19.4704 17.8527 19.139C17.8527 18.476 20.0748 17.3834 20.0748 16.6345C20.0748 16.2539 19.7065 15.861 19.51 15.5419C19.1049 14.8544 18.7243 14.1423 18.3315 13.4425C18.2087 13.197 17.9386 12.5954 17.6808 12.5095C17.5949 12.4727 17.5089 12.4727 17.423 12.4727C16.981 12.4727 16.1217 12.6691 15.7165 12.8532C15.115 13.111 14.7221 13.7985 14.4152 14.351C14.0223 15.0753 13.7891 15.8119 13.7891 16.6345C13.7891 17.7762 14.2556 18.8075 14.6362 19.851C14.9062 20.5999 15.2377 21.3242 15.6551 21.9994C16.9442 24.0865 19.4609 26.6032 21.548 27.8923C22.2232 28.3097 22.9475 28.6412 23.6964 28.9113C24.74 29.2919 25.7712 29.7584 26.9129 29.7584C27.7355 29.7584 28.4721 29.5251 29.1964 29.1323C29.7489 28.8253 30.4364 28.4325 30.6942 27.8309C30.8783 27.4258 31.0748 26.5664 31.0748 26.1244Z" fill="white"/>
<defs>
<linearGradient id="paint0_linear_2093_455" x1="21.9141" y1="0.0546875" x2="21.9141" y2="43.0547" gradientUnits="userSpaceOnUse">
<stop offset="0.5" stop-color="#09B4C5"/>
<stop offset="0.53125" stop-color="#00A5B5"/>
</linearGradient>
</defs>
</svg>
