<svg width="44" height="44" viewBox="0 0 44 44" fill="none" xmlns="http://www.w3.org/2000/svg">
<path d="M19.7969 1.99806C21.3439 1.1049 23.2499 1.1049 24.7969 1.99806L38.4164 9.86131C39.9634 10.7545 40.9164 12.4051 40.9164 14.1914V29.9179C40.9164 31.7043 39.9634 33.3549 38.4164 34.2481L24.7969 42.1113C23.2499 43.0045 21.3439 43.0045 19.7969 42.1113L6.17733 34.2481C4.63032 33.3549 3.67733 31.7043 3.67733 29.9179V14.1914C3.67733 12.4051 4.63032 10.7545 6.17733 9.86131L19.7969 1.99806Z" fill="url(#paint0_linear_2093_445)"/>
<path d="M31.0269 15.6582L28.2631 28.8172C28.0568 29.7247 27.4793 29.9722 26.6955 29.5184L22.4467 26.3834L20.4254 28.3634C20.1779 28.6109 20.0129 28.7759 19.5591 28.7759L19.8479 24.4446L27.7268 17.3494C28.0981 17.0607 27.6443 16.8544 27.1905 17.1844L17.4554 23.2896L13.289 22.0108C12.3815 21.722 12.3403 21.1033 13.454 20.6495L29.8719 14.3381C30.6144 14.0494 31.2744 14.5031 31.0269 15.6582Z" fill="white"/>
<defs>
<linearGradient id="paint0_linear_2093_445" x1="22.2969" y1="0.554687" x2="22.2969" y2="43.5547" gradientUnits="userSpaceOnUse">
<stop offset="0.5" stop-color="#09B4C5"/>
<stop offset="0.53125" stop-color="#00A5B5"/>
</linearGradient>
</defs>
</svg>
