<svg width="43" height="43" viewBox="0 0 43 43" fill="none" xmlns="http://www.w3.org/2000/svg">
<path d="M19 1.44338C20.547 0.550212 22.453 0.550212 24 1.44338L37.6195 9.30662C39.1666 10.1998 40.1195 11.8504 40.1195 13.6368V29.3632C40.1195 31.1496 39.1666 32.8002 37.6195 33.6934L24 41.5566C22.453 42.4498 20.547 42.4498 19 41.5566L5.38045 33.6934C3.83345 32.8002 2.88045 31.1496 2.88045 29.3632V13.6368C2.88045 11.8504 3.83345 10.1998 5.38045 9.30662L19 1.44338Z" fill="url(#paint0_linear_2542_934)"/>
<path d="M30.0564 16.5414C30.0564 15.6324 29.2864 14.8887 28.3453 14.8887H14.6564C13.7153 14.8887 12.9453 15.6324 12.9453 16.5414M30.0564 16.5414V26.4581C30.0564 27.3671 29.2864 28.1109 28.3453 28.1109H14.6564C13.7153 28.1109 12.9453 27.3671 12.9453 26.4581V16.5414M30.0564 16.5414L21.5009 22.3262L12.9453 16.5414" stroke="white" stroke-width="1.2" stroke-linecap="round" stroke-linejoin="round"/>
<defs>
<linearGradient id="paint0_linear_2542_934" x1="21.5" y1="0" x2="21.5" y2="43" gradientUnits="userSpaceOnUse">
<stop offset="0.5" stop-color="#09B4C5"/>
<stop offset="0.53125" stop-color="#00A5B5"/>
</linearGradient>
</defs>
</svg>
