<svg width="30" height="30" viewBox="0 0 30 30" fill="none" xmlns="http://www.w3.org/2000/svg">
<g clip-path="url(#clip0_3421_26)">
<path d="M9.16061 30.0024C8.99611 30.0034 8.83303 29.9718 8.68073 29.9096C8.52843 29.8474 8.38991 29.7558 8.27311 29.6399C8.15595 29.5237 8.06296 29.3855 7.9995 29.2331C7.93604 29.0808 7.90337 28.9174 7.90337 28.7524C7.90337 28.5874 7.93604 28.424 7.9995 28.2717C8.06296 28.1194 8.15595 27.9811 8.27311 27.8649L18.4856 17.6524C19.1879 16.9493 19.5823 15.9962 19.5823 15.0024C19.5823 14.0087 19.1879 13.0556 18.4856 12.3524L8.27311 2.13993C8.03773 1.90455 7.9055 1.58531 7.9055 1.25243C7.9055 0.919552 8.03773 0.600309 8.27311 0.364929C8.50849 0.129549 8.82774 -0.00268555 9.16061 -0.00268555C9.49349 -0.00268555 9.81273 0.129549 10.0481 0.364929L20.2606 10.5774C20.8427 11.158 21.3044 11.8477 21.6195 12.607C21.9346 13.3663 22.0968 14.1803 22.0968 15.0024C22.0968 15.8245 21.9346 16.6385 21.6195 17.3978C21.3044 18.1572 20.8427 18.8469 20.2606 19.4274L10.0481 29.6399C9.93131 29.7558 9.79279 29.8474 9.6405 29.9096C9.4882 29.9718 9.32512 30.0034 9.16061 30.0024Z" fill="black"/>
</g>
<defs>
<clipPath id="clip0_3421_26">
<rect width="30" height="30" fill="white"/>
</clipPath>
</defs>
</svg>
