<svg width="30" height="30" viewBox="0 0 30 30" fill="none" xmlns="http://www.w3.org/2000/svg">
<g clip-path="url(#clip0_3421_24)">
<path d="M20.8394 30.0024C21.0039 30.0034 21.167 29.9718 21.3193 29.9096C21.4716 29.8474 21.6101 29.7558 21.7269 29.6399C21.844 29.5237 21.937 29.3855 22.0005 29.2331C22.064 29.0808 22.0966 28.9174 22.0966 28.7524C22.0966 28.5874 22.064 28.424 22.0005 28.2717C21.937 28.1194 21.844 27.9811 21.7269 27.8649L11.5144 17.6524C10.8121 16.9493 10.4177 15.9962 10.4177 15.0024C10.4177 14.0087 10.8121 13.0556 11.5144 12.3524L21.7269 2.13993C21.9623 1.90455 22.0945 1.58531 22.0945 1.25243C22.0945 0.919552 21.9623 0.600309 21.7269 0.364929C21.4915 0.129549 21.1723 -0.00268555 20.8394 -0.00268555C20.5065 -0.00268555 20.1873 0.129549 19.9519 0.364929L9.73939 10.5774C9.15735 11.158 8.69556 11.8477 8.38048 12.607C8.0654 13.3663 7.90321 14.1803 7.90321 15.0024C7.90321 15.8245 8.0654 16.6385 8.38048 17.3978C8.69556 18.1572 9.15735 18.8469 9.73939 19.4274L19.9519 29.6399C20.0687 29.7558 20.2072 29.8474 20.3595 29.9096C20.5118 29.9718 20.6749 30.0034 20.8394 30.0024Z" fill="black"/>
</g>
<defs>
<clipPath id="clip0_3421_24">
<rect width="30" height="30" fill="white" transform="matrix(-1 0 0 1 30 0)"/>
</clipPath>
</defs>
</svg>
