<svg width="31" height="30" viewBox="0 0 31 30" fill="none" xmlns="http://www.w3.org/2000/svg">
<g clip-path="url(#clip0_3418_10)">
<path d="M30.0093 7.4204V7.35697C29.9768 7.29355 29.9768 7.23013 29.9444 7.16671V7.135C29.9119 7.07157 29.8471 7.00815 29.8146 6.97644L29.7822 6.94473C29.7497 6.91302 29.6849 6.88131 29.6524 6.8496L29.62 6.81789H29.5875L29.5551 6.78617L15.7673 0.0951333C15.5078 -0.0317111 15.1834 -0.0317111 14.8914 0.0951333L10.2522 2.34662L24.1049 9.29135L24.1373 9.32306C24.1698 9.32306 24.1698 9.35477 24.2022 9.35477C24.2346 9.38648 24.2346 9.4182 24.2671 9.44991V16.902C24.2671 17.0289 24.2022 17.124 24.1049 17.1874L21.3149 18.6144C21.1527 18.7095 20.958 18.6461 20.8607 18.4876C20.8283 18.4559 20.8283 18.3924 20.8283 18.329V11.1306L6.81341 4.05902L6.78097 4.02731L1.16854 6.75446L1.1361 6.78617H1.10366L1.07122 6.81789C1.03878 6.8496 0.973893 6.88131 0.941451 6.91302L0.909009 6.94473C0.844126 7.00815 0.811684 7.07157 0.7468 7.135V7.16671C0.714359 7.23013 0.681917 7.29355 0.681917 7.35697V7.4204C0.681917 7.48382 0.649475 7.51553 0.649475 7.57895V22.388C0.649475 22.7369 0.844126 23.0857 1.20099 23.2442L14.859 29.9036C15.0536 29.9987 15.2807 30.0304 15.5078 29.967L15.5727 29.9353C15.6376 29.9353 15.67 29.9036 15.7349 29.8718L29.4902 23.2125C29.8146 23.054 30.0417 22.7369 30.0417 22.3563V7.57895C30.0093 7.51553 30.0093 7.48382 30.0093 7.4204Z" fill="black"/>
</g>
<defs>
<clipPath id="clip0_3418_10">
<rect width="30.6912" height="30" fill="white"/>
</clipPath>
</defs>
</svg>
