<svg width="30" height="30" viewBox="0 0 30 30" fill="none" xmlns="http://www.w3.org/2000/svg">
<g clip-path="url(#clip0_3418_13)">
<path d="M22.9102 14.6484L15.8789 16.9922L22.9102 19.3359L29.9414 16.9922L22.9102 14.6484ZM0.0585938 16.9922L7.08984 19.3359L14.1211 16.9922L7.08984 14.6484L0.0585938 16.9922ZM15.2779 0.0450884C15.0975 -0.0150295 14.9024 -0.0150295 14.722 0.0450884L7.96875 2.2962L15 4.63995L22.0312 2.2962L15.2779 0.0450884ZM7.96875 30L14.1211 27.9492V18.8451L7.96875 20.8959V30ZM0.0585938 27.3157C0.0585808 27.5002 0.11662 27.68 0.224486 27.8297C0.332353 27.9793 0.484577 28.0912 0.65959 28.1495L6.21094 30V20.8959L0.0585938 18.8451V27.3157ZM15.8789 27.9492L22.0312 30V20.8959L15.8789 18.8451V27.9492ZM23.7891 30L29.3404 28.1495C29.5154 28.0912 29.6676 27.9793 29.7755 27.8296C29.8834 27.68 29.9414 27.5002 29.9414 27.3157V18.8451L23.7891 20.8959V30ZM7.96875 13.4179L14.1211 15.4687V6.19989L7.96875 4.14905V13.4179ZM22.0312 13.4179V4.14905L15.8789 6.19989V15.4687L22.0312 13.4179Z" fill="black"/>
</g>
<defs>
<clipPath id="clip0_3418_13">
<rect width="30" height="30" fill="white"/>
</clipPath>
</defs>
</svg>
