<svg width="31" height="30" viewBox="0 0 31 30" fill="none" xmlns="http://www.w3.org/2000/svg">
<g clip-path="url(#clip0_3421_44)">
<path d="M2.00011 30.0001C1.605 30.0001 1.20979 29.8499 0.909578 29.5474C0.306833 28.9446 0.306833 27.9674 0.909578 27.3647L27.8221 0.452058C28.4248 -0.150686 29.402 -0.150686 30.0048 0.452058C30.6075 1.0548 30.6075 2.03202 30.0048 2.63515L3.09257 29.5474C2.80273 29.837 2.40985 29.9998 2.00011 30.0001Z" fill="black"/>
<path d="M28.9145 30.0003C28.7119 30.0008 28.5111 29.961 28.3239 29.8832C28.1367 29.8055 27.9668 29.6914 27.824 29.5475L0.909578 2.6353C0.306833 2.03217 0.306833 1.05505 0.909578 0.452303C1.51232 -0.150442 2.48944 -0.150442 3.09257 0.452303L30.0048 27.3648C30.6075 27.9676 30.6075 28.9448 30.0048 29.5475C29.7023 29.8481 29.3075 30.0003 28.9145 30.0003Z" fill="black"/>
</g>
<defs>
<clipPath id="clip0_3421_44">
<rect width="30" height="30" fill="white" transform="translate(0.450012)"/>
</clipPath>
</defs>
</svg>
