<svg width="30" height="30" viewBox="0 0 30 30" fill="none" xmlns="http://www.w3.org/2000/svg">
<g clip-path="url(#clip0_3421_16)">
<path d="M25.9091 9.45453H21.8182V4H2.7273C1.22043 4 0 5.22043 0 6.7273V21.7273H2.7273C2.7273 23.9842 4.56137 25.8182 6.81821 25.8182C9.07505 25.8182 10.9091 23.9842 10.9091 21.7273H19.0909C19.0909 23.9842 20.925 25.8182 23.1819 25.8182C25.4387 25.8182 27.2728 23.9842 27.2728 21.7273H30.0001V14.9091L25.9091 9.45453ZM6.81821 23.7727C5.68637 23.7727 4.77275 22.8591 4.77275 21.7273C4.77275 20.5954 5.68637 19.6818 6.81821 19.6818C7.95005 19.6818 8.86366 20.5954 8.86366 21.7273C8.86366 22.8591 7.94998 23.7727 6.81821 23.7727ZM23.1819 23.7727C22.05 23.7727 21.1364 22.8591 21.1364 21.7273C21.1364 20.5954 22.05 19.6818 23.1819 19.6818C24.3137 19.6818 25.2273 20.5954 25.2273 21.7273C25.2273 22.8591 24.3136 23.7727 23.1819 23.7727ZM21.8182 14.9091V11.5H25.2272L27.9068 14.9091H21.8182Z" fill="black"/>
</g>
<defs>
<clipPath id="clip0_3421_16">
<rect width="30" height="30" fill="white"/>
</clipPath>
</defs>
</svg>
