<svg width="25" height="30" viewBox="0 0 25 30" fill="none" xmlns="http://www.w3.org/2000/svg">
<g clip-path="url(#clip0_3421_41)">
<path d="M23.1344 6.32537C22.2594 4.60054 20.9649 3.12333 19.3698 2.0295C17.7747 0.935678 15.9303 0.260342 14.006 0.065566C13.1351 -0.0218553 12.2576 -0.0218553 11.3867 0.065566C9.46257 0.260651 7.61828 0.936111 6.02326 2.0299C4.42824 3.12369 3.13364 4.60074 2.25837 6.32537C1.15706 8.52603 0.73156 11.0034 1.03545 13.4454C1.33934 15.8874 2.35904 18.1849 3.96612 20.0485L11.8056 29.5795C11.9138 29.711 12.0499 29.8169 12.2039 29.8896C12.3579 29.9623 12.5261 30 12.6964 30C12.8667 30 13.0349 29.9623 13.1889 29.8896C13.3429 29.8169 13.4789 29.711 13.5872 29.5795L21.4255 20.0485C23.0328 18.185 24.0527 15.8876 24.3568 13.4456C24.6609 11.0035 24.2356 8.52614 23.1344 6.32537ZM12.6964 16.153C11.7835 16.153 10.8912 15.8823 10.1321 15.3751C9.37312 14.868 8.78153 14.1471 8.4322 13.3037C8.08286 12.4604 7.99146 11.5323 8.16955 10.637C8.34764 9.74169 8.78722 8.91928 9.43272 8.27379C10.0782 7.62829 10.9006 7.18871 11.7959 7.01062C12.6913 6.83253 13.6193 6.92393 14.4627 7.27327C15.3061 7.6226 16.0269 8.21419 16.5341 8.97321C17.0412 9.73223 17.3119 10.6246 17.3119 11.5375C17.3104 12.7611 16.8236 13.9342 15.9584 14.7994C15.0931 15.6647 13.92 16.1515 12.6964 16.153Z" fill="black"/>
</g>
<defs>
<clipPath id="clip0_3421_41">
<rect width="23.51" height="30" fill="white" transform="translate(0.940002)"/>
</clipPath>
</defs>
</svg>
