<svg width="27" height="30" viewBox="0 0 27 30" fill="none" xmlns="http://www.w3.org/2000/svg">
<path d="M24.6852 20.3404L21.3359 16.9911C20.1398 15.7949 18.1063 16.2734 17.6278 17.8284C17.269 18.905 16.0728 19.5031 14.9963 19.2638C12.6039 18.6657 9.37427 15.5557 8.77619 13.0437C8.41734 11.9671 9.13504 10.771 10.2116 10.4122C11.7666 9.93371 12.2451 7.90023 11.0489 6.70406L7.69964 3.35479C6.7427 2.51748 5.3073 2.51748 4.46998 3.35479L2.19727 5.62751C-0.0754534 8.01985 2.4365 14.3595 8.05849 19.9815C13.6805 25.6035 20.0202 28.2351 22.4125 25.8427L24.6852 23.57C25.5226 22.6131 25.5226 21.1777 24.6852 20.3404Z" fill="black"/>
</svg>
