<svg width="31" height="30" viewBox="0 0 31 30" fill="none" xmlns="http://www.w3.org/2000/svg">
<g clip-path="url(#clip0_3422_48)">
<path d="M29.2 13.75H16.7V1.24998C16.7 0.559629 16.1404 0 15.45 0C14.7597 0 14.2 0.559629 14.2 1.24998V13.75H1.69999C1.00964 13.75 0.450012 14.3096 0.450012 15C0.450012 15.6903 1.00964 16.25 1.69999 16.25H14.2V28.75C14.2 29.4403 14.7596 29.9999 15.45 29.9999C16.1403 29.9999 16.6999 29.4403 16.6999 28.75V16.25H29.1999C29.8903 16.25 30.4499 15.6903 30.4499 15C30.45 14.3096 29.8904 13.75 29.2 13.75Z" fill="black"/>
</g>
<defs>
<clipPath id="clip0_3422_48">
<rect width="30" height="30" fill="white" transform="translate(0.450012)"/>
</clipPath>
</defs>
</svg>
