<svg width="31" height="30" viewBox="0 0 31 30" fill="none" xmlns="http://www.w3.org/2000/svg">
<g clip-path="url(#clip0_3418_8)">
<path d="M15.3456 0C6.88379 0 0 6.72875 0 15C0.771117 34.8725 29.924 34.8675 30.6912 15C30.6912 6.72875 23.8075 0 15.3456 0ZM16.6244 21.25V22.5C16.618 24.135 14.0732 24.1337 14.0668 22.5V21.25H13.7241C12.3596 21.25 11.0859 20.5325 10.4018 19.3762C10.0475 18.7775 10.2573 18.0137 10.8673 17.6687C11.4798 17.32 12.2624 17.5275 12.6141 18.1237C12.843 18.5112 13.2676 18.75 13.7228 18.75H16.6231C17.8981 18.8312 18.4685 16.8125 17.0784 16.55L13.1896 15.9162C8.7112 15.105 9.67541 8.725 14.0655 8.75V7.5C14.0732 5.865 16.6168 5.86625 16.6231 7.5V8.75H16.9659C18.3303 8.75 19.604 9.46875 20.2882 10.625C20.6424 11.2225 20.4327 11.9862 19.8227 12.3325C19.2089 12.6787 18.4275 12.4737 18.0759 11.8762C17.847 11.49 17.4224 11.2512 16.9671 11.2512H14.0668C12.7919 11.17 12.2228 13.1887 13.6116 13.4512L17.5004 14.085C21.9788 14.8962 21.0146 21.275 16.6244 21.25Z" fill="black"/>
</g>
<defs>
<clipPath id="clip0_3418_8">
<rect width="30.6912" height="30" fill="white"/>
</clipPath>
</defs>
</svg>
