<svg width="30" height="30" viewBox="0 0 30 30" fill="none" xmlns="http://www.w3.org/2000/svg">
<path d="M7.51831 16.8843L7.51837 16.8845C7.53694 16.8658 7.53571 16.8669 7.51831 16.8843Z" fill="black"/>
<path d="M27.4052 13.1507L26.0624 12.8278C25.7704 11.5532 25.2675 10.342 24.5646 9.21574L25.2451 8.07326C25.3351 7.92205 25.3721 7.74516 25.3503 7.57055C25.3285 7.39594 25.249 7.2336 25.1246 7.10921L22.8944 4.87905C22.7699 4.75476 22.6076 4.67544 22.4331 4.65362C22.2585 4.6318 22.0816 4.66871 21.9304 4.75854L20.7879 5.43905C19.6617 4.73612 18.4504 4.23323 17.1758 3.94126L16.8529 2.59847C16.8101 2.42746 16.7114 2.27566 16.5724 2.16719C16.4334 2.05872 16.2622 1.99979 16.0859 1.99976H12.9218C12.7455 1.99978 12.5743 2.0587 12.4353 2.16718C12.2963 2.27565 12.1976 2.42746 12.1548 2.59847L11.8319 3.94126C10.5573 4.23323 9.34604 4.73612 8.21981 5.43905L7.07733 4.75854C6.92613 4.66853 6.74923 4.63152 6.57462 4.65334C6.40002 4.67517 6.23767 4.75459 6.11328 4.87905L3.88302 7.10915C3.75858 7.23356 3.67916 7.3959 3.65734 7.5705C3.63551 7.7451 3.67252 7.922 3.7625 8.07321L4.44302 9.21568C3.74009 10.3419 3.2372 11.5532 2.94523 12.8278L1.60244 13.1506C1.43143 13.1935 1.27963 13.2922 1.17116 13.4312C1.06268 13.5702 1.00375 13.7414 1.00372 13.9177V17.0817C1.00372 17.4448 1.25092 17.7615 1.60318 17.8488L2.94597 18.1717C3.14063 19.0163 3.43361 19.8277 3.80986 20.606C4.39081 20.0226 7.30855 17.0924 7.51825 16.883C7.50791 16.8297 7.39489 15.8165 7.39188 15.6191C7.32458 11.5883 10.5713 8.38132 14.5069 8.38132C18.4694 8.38132 21.6292 11.5765 21.6142 15.5244C21.5973 19.1755 18.8722 22.2838 15.0662 22.568C14.9015 22.5807 14.1571 22.6905 13.1196 22.486L9.40706 26.1985C10.1824 26.5725 10.9907 26.8635 11.8318 27.0575L12.1547 28.401C12.1976 28.5721 12.2963 28.7238 12.4353 28.8323C12.5743 28.9408 12.7455 28.9997 12.9218 28.9998H16.0858C16.2621 28.9997 16.4334 28.9408 16.5723 28.8323C16.7113 28.7239 16.8101 28.5721 16.8529 28.401L17.1758 27.0583C18.4504 26.7663 19.6616 26.2634 20.7878 25.5605L21.9303 26.241C22.2401 26.4264 22.6379 26.3754 22.8944 26.1205L25.1245 23.8903C25.249 23.7659 25.3284 23.6036 25.3502 23.429C25.372 23.2544 25.335 23.0775 25.245 22.9263L24.5645 21.7838C25.2683 20.6575 25.7704 19.4463 26.0623 18.1709L27.4043 17.8488C27.7566 17.7615 28.0038 17.4448 28.0038 17.0817V13.9177C28.0038 13.7414 27.9449 13.5702 27.8364 13.4312C27.7279 13.2923 27.5762 13.1935 27.4052 13.1507Z" fill="black"/>
<path d="M19.8559 14.0531C19.8218 13.9193 19.7528 13.7969 19.656 13.6984C19.5593 13.5999 19.4382 13.5287 19.305 13.4922C19.1718 13.4558 19.0314 13.4553 18.8981 13.4908C18.7647 13.5262 18.643 13.5964 18.5456 13.6941L16.7405 15.4992C16.1235 16.1163 15.1204 16.1163 14.5034 15.4992C13.8869 14.8828 13.8869 13.8786 14.5034 13.2621L16.3092 11.4563C16.4068 11.3587 16.4768 11.237 16.5121 11.1035C16.5475 10.9701 16.5468 10.8297 16.5103 10.6966C16.4738 10.5635 16.4027 10.4424 16.3043 10.3457C16.2058 10.2489 16.0835 10.18 15.9497 10.1458C12.612 9.29758 9.60827 11.4717 9.05739 14.4741C8.88049 15.4629 8.95929 16.4478 9.28291 17.3547C8.83282 17.8048 1.8808 24.7567 1.69394 24.9437C0.766175 25.8715 0.766175 27.3809 1.70861 28.3233C2.64223 29.2083 4.07209 29.2455 5.05882 28.3086L12.6478 20.7196C13.8632 21.1534 15.2185 21.1445 16.5449 20.6765C18.9349 19.8332 20.6076 17.0029 19.8559 14.0531Z" fill="black"/>
</svg>
