<svg width="30" height="30" viewBox="0 0 30 30" fill="none" xmlns="http://www.w3.org/2000/svg">
<g clip-path="url(#clip0_3418_6)">
<path d="M24.93 3.30248L15 0.0112305L5.07 3.30248C4.32184 3.5505 3.67085 4.02795 3.2095 4.66702C2.74815 5.30609 2.4999 6.07428 2.5 6.86248V15C2.5 24.405 14 29.5987 14.4925 29.815L14.935 30.0112L15.395 29.8587C15.89 29.6937 27.5 25.7212 27.5 15V6.86248C27.5001 6.07428 27.2518 5.30609 26.7905 4.66702C26.3291 4.02795 25.6782 3.5505 24.93 3.30248ZM15.555 17.4862C15.3365 17.7062 15.0764 17.8806 14.79 17.9993C14.5035 18.1179 14.1963 18.1785 13.8863 18.1775H13.845C13.5286 18.1726 13.2165 18.1037 12.9275 17.9748C12.6385 17.8459 12.3787 17.6597 12.1637 17.4275L9.28125 14.4275L11.085 12.7L13.89 15.625L20.3662 9.14873L22.1338 10.9162L15.555 17.4862Z" fill="black"/>
</g>
<defs>
<clipPath id="clip0_3418_6">
<rect width="30" height="30" fill="white"/>
</clipPath>
</defs>
</svg>
