<svg width="31" height="30" viewBox="0 0 31 30" fill="none" xmlns="http://www.w3.org/2000/svg">
<g clip-path="url(#clip0_3421_30)">
<path d="M1.111 14.8202L8.01106 17.1634L24.3944 7.1476C24.6323 7.00295 24.8755 7.32545 24.6708 7.51403L12.2679 18.9302L11.8072 25.3213C11.7996 25.4284 11.8248 25.5352 11.8794 25.6276C11.934 25.72 12.0154 25.7936 12.1128 25.8387C12.2102 25.8838 12.319 25.8982 12.4247 25.8801C12.5305 25.8619 12.6283 25.812 12.705 25.737L16.5236 21.9816L23.5051 27.266C24.2573 27.836 25.3469 27.4342 25.5494 26.5128L30.4105 4.44115C30.688 3.18221 29.4537 2.11934 28.2505 2.58006L1.07672 12.9859C0.223854 13.3126 0.247426 14.5266 1.111 14.8202Z" fill="black"/>
</g>
<defs>
<clipPath id="clip0_3421_30">
<rect width="30" height="30" fill="white" transform="translate(0.450012)"/>
</clipPath>
</defs>
</svg>
