<svg width="30" height="30" viewBox="0 0 30 30" fill="none" xmlns="http://www.w3.org/2000/svg">
<g clip-path="url(#clip0_3703_3309)">
<path d="M7.05882 22.0589H22.9412V25.1471H7.05882V22.0589ZM7.05882 20.2942V17.206H22.9412V20.2942H7.05882ZM7.05882 26.9119H22.9412V30.0001H7.05882V26.9119ZM24.7059 30.0001V16.3236C24.7059 16.0896 24.6129 15.8652 24.4474 15.6997C24.282 15.5342 24.0575 15.4413 23.8235 15.4413H6.17647C5.94246 15.4413 5.71803 15.5342 5.55255 15.6997C5.38708 15.8652 5.29412 16.0896 5.29412 16.3236V30.0001H2.64706C1.94502 30.0001 1.27173 29.7212 0.775306 29.2248C0.278886 28.7284 0 28.0551 0 27.353L0 10.6841C-1.05885e-06 10.2351 0.114187 9.79352 0.331826 9.40085C0.549466 9.00817 0.863404 8.6773 1.24412 8.43935L13.5971 0.718765C14.0178 0.455826 14.5039 0.316406 15 0.316406C15.4961 0.316406 15.9822 0.455826 16.4029 0.718765L28.7559 8.43935C29.1366 8.6773 29.4505 9.00817 29.6682 9.40085C29.8858 9.79352 30 10.2351 30 10.6841V27.353C30 28.0551 29.7211 28.7284 29.2247 29.2248C28.7283 29.7212 28.055 30.0001 27.3529 30.0001H24.7059ZM12.3529 11.4707H17.6471C17.8811 11.4707 18.1055 11.3777 18.271 11.2122C18.4365 11.0468 18.5294 10.8223 18.5294 10.5883C18.5294 10.3543 18.4365 10.1299 18.271 9.96441C18.1055 9.79893 17.8811 9.70597 17.6471 9.70597H12.3529C12.1189 9.70597 11.8945 9.79893 11.729 9.96441C11.5636 10.1299 11.4706 10.3543 11.4706 10.5883C11.4706 10.8223 11.5636 11.0468 11.729 11.2122C11.8945 11.3777 12.1189 11.4707 12.3529 11.4707Z" fill="black"/>
</g>
<defs>
<clipPath id="clip0_3703_3309">
<rect width="30" height="30" fill="white"/>
</clipPath>
</defs>
</svg>
