<svg width="31" height="30" viewBox="0 0 31 30" fill="none" xmlns="http://www.w3.org/2000/svg">
<g clip-path="url(#clip0_3421_33)">
<path fill-rule="evenodd" clip-rule="evenodd" d="M26.0288 4.36C23.2213 1.55 19.4888 0.00125 15.5125 0C7.31877 0 0.650021 6.6675 0.646271 14.865C0.645021 17.485 1.33002 20.0425 2.63127 22.2975L0.521271 30L8.40127 27.9325C10.5725 29.1175 13.0175 29.7413 15.505 29.7425H15.5113C23.7038 29.7425 30.3738 23.0738 30.3775 14.8763C30.38 10.905 28.835 7.16875 26.0288 4.36ZM15.5125 27.2312H15.5075C13.29 27.2312 11.1163 26.635 9.21877 25.5087L8.76752 25.2413L4.09127 26.4675L5.34002 21.9075L5.04627 21.44C3.80877 19.4725 3.15627 17.1988 3.15752 14.865C3.16002 8.0525 8.70377 2.51 15.5188 2.51C18.8188 2.51 21.9213 3.7975 24.2538 6.1325C26.5863 8.46875 27.87 11.5725 27.8688 14.8738C27.865 21.6888 22.3225 27.2312 15.5125 27.2312ZM22.29 17.9775C21.9188 17.7912 20.0925 16.8925 19.7513 16.7687C19.4113 16.645 19.1638 16.5825 18.915 16.9537C18.6663 17.325 17.9563 18.1625 17.7388 18.4113C17.5225 18.6588 17.305 18.69 16.9338 18.5038C16.5625 18.3175 15.365 17.9263 13.9463 16.66C12.8425 15.675 12.0963 14.4588 11.88 14.0863C11.6638 13.7138 11.8575 13.5138 12.0425 13.3288C12.21 13.1625 12.4138 12.895 12.6 12.6775C12.7875 12.4625 12.8488 12.3075 12.9738 12.0588C13.0975 11.8113 13.0363 11.5938 12.9425 11.4075C12.8488 11.2225 12.1063 9.39375 11.7975 8.65C11.4963 7.925 11.19 8.02375 10.9613 8.0125C10.745 8.00125 10.4975 8 10.2488 8C10.0013 8 9.59877 8.0925 9.25877 8.465C8.91877 8.8375 7.95877 9.73625 7.95877 11.5638C7.95877 13.3925 9.29002 15.1587 9.47502 15.4062C9.66002 15.6537 12.0938 19.4063 15.82 21.015C16.7063 21.3975 17.3988 21.6262 17.9375 21.7975C18.8275 22.08 19.6375 22.04 20.2775 21.945C20.9913 21.8387 22.475 21.0462 22.785 20.1787C23.095 19.3112 23.095 18.5662 23.0013 18.4125C22.9088 18.2562 22.6613 18.1637 22.29 17.9775Z" fill="black"/>
</g>
<defs>
<clipPath id="clip0_3421_33">
<rect width="30" height="30" fill="white" transform="translate(0.450012)"/>
</clipPath>
</defs>
</svg>
