<svg width="167" height="41" viewBox="0 0 167 41" fill="none" xmlns="http://www.w3.org/2000/svg">
<path d="M47.1719 33.1992V8.46973H60.0158C63.0679 8.46973 65.3458 9.2111 66.8489 10.6942C67.9224 11.7529 68.4591 13.1071 68.4591 14.7565C68.4591 17.3226 67.1707 19.1592 64.5942 20.2665C66.2162 20.7855 67.4508 21.5271 68.2981 22.491C69.1452 23.4549 69.5686 24.7502 69.5686 26.3766C69.5686 28.4952 68.734 30.1615 67.0653 31.3753C65.396 32.5888 63.0703 33.1967 60.0877 33.1992H47.1719ZM53.9333 27.6892H59.2989C61.5178 27.6892 62.6266 26.9116 62.6254 25.3572C62.6254 23.8752 61.4926 23.1336 59.2267 23.1326H53.9333V27.6892ZM53.9333 18.3264H58.2973C60.4923 18.3264 61.5898 17.585 61.5898 16.1019C61.5898 14.6883 60.5403 13.982 58.4415 13.9833H53.9333V18.3264ZM72.5011 33.1992V14.0855H79.2982V33.1992H72.5011ZM72.3586 12.3604V8.46973H79.4475V12.3551L72.3586 12.3604ZM81.6596 33.1992L90.2509 20.6202L82.0197 8.46973H89.9988L94.4347 15.4274L98.907 8.46973H106.713L98.4818 20.5423L107.056 33.1992H99.0837L94.2823 25.7436L89.4534 33.1992H81.6596ZM109.674 33.1992V8.46973H122.518C125.57 8.46973 127.848 9.2111 129.351 10.6942C130.424 11.7529 130.96 13.1071 130.96 14.7565C130.96 17.3226 129.672 19.1592 127.096 20.2665C128.719 20.7855 129.953 21.5271 130.799 22.491C131.645 23.4549 132.068 24.7502 132.069 26.3766C132.069 28.4952 131.235 30.1615 129.566 31.3753C127.897 32.5888 125.571 33.1967 122.59 33.1992H109.674ZM116.435 27.6892H121.803C124.022 27.6892 125.131 26.9116 125.13 25.3572C125.13 23.8752 123.997 23.1336 121.731 23.1326H116.435V27.6892ZM116.435 18.3264H120.8C122.995 18.3264 124.092 17.585 124.092 16.1019C124.092 14.6883 123.043 13.982 120.944 13.9833H116.435V18.3264ZM135.007 33.1992V14.0855H141.804V33.1992H135.007ZM134.864 12.3604V8.46973H141.948V12.3551L134.864 12.3604ZM152.106 33.1992V14.4739H144.593V8.46973H166.559V14.4739H159.046V33.1992H152.106Z" fill="white"/>
<path d="M17.042 16.0588L17.0669 16.0453L17.9608 15.5227L22.349 18.0728L22.816 18.3539V24.0153L17.9608 26.8466L15.2249 25.265L13.5851 24.309L13.0941 24.028V18.3665L17.042 16.0588ZM5.24989 8.06181L16.4993 14.6559L0.671875 23.862V10.7281L5.24989 8.06181ZM11.6441 19.1937V37.0476L0.684352 30.6714V25.5714L11.6441 19.1937ZM22.8303 3.6763V16.6454L21.7841 16.0327L6.71319 7.22203L17.8111 0.756836L22.8303 3.6763ZM17.9608 28.5423L28.2986 34.5352L17.8111 40.6436L13.1065 37.9018V25.7112L17.9608 28.5423ZM34.9379 30.6714L29.7689 33.6812L19.4313 27.6881L34.9379 18.6593V30.6714ZM34.9379 10.7281V16.9635L24.2936 23.1611V4.53141L34.9379 10.7281Z" fill="url(#paint0_linear_3049_574)"/>
<defs>
<linearGradient id="paint0_linear_3049_574" x1="17.8049" y1="0.756836" x2="17.8049" y2="40.6436" gradientUnits="userSpaceOnUse">
<stop stop-color="#FF54B3"/>
<stop offset="1" stop-color="#FF008D"/>
</linearGradient>
</defs>
</svg>
