<svg width="122" height="140" viewBox="0 0 122 140" fill="none" xmlns="http://www.w3.org/2000/svg">
<path d="M63.7111 43.0997C63.7111 41.5601 62.0444 40.5978 60.7111 41.3676L42.0273 52.1549C41.4085 52.5122 41.0273 53.1724 41.0273 53.887V62.9505C41.0273 64.055 41.9228 64.9504 43.0273 64.9504H61.7111C62.8157 64.9504 63.7111 64.055 63.7111 62.9504V43.0997Z" fill="#FAAB21"/>
<path d="M61.6968 0.267904C61.078 -0.0893138 60.3156 -0.0893002 59.6969 0.267938L1.00002 34.1556C0.381207 34.5129 0 35.1731 0 35.8877V103.672C0 104.386 0.381304 105.047 1.00024 105.404L19.4485 116.052C20.7818 116.821 22.4483 115.859 22.4483 114.319V48.8486C22.4483 48.134 22.8295 47.4738 23.4483 47.1165L59.6969 26.1896C60.3156 25.8324 61.078 25.8324 61.6967 26.1896L97.9497 47.1165C98.5686 47.4738 98.9499 48.1341 98.9499 48.8486V90.7066C98.9499 91.4211 98.5687 92.0814 97.9499 92.4387L65.8706 110.961C64.5372 111.731 62.8705 110.768 62.8705 109.229V74.5287C62.8705 73.4241 61.9751 72.5287 60.8705 72.5287H42.4223C41.3177 72.5287 40.4223 73.4241 40.4223 74.5287V127.008C40.4223 127.722 40.8034 128.383 41.4222 128.74L59.6968 139.292C60.3156 139.649 61.078 139.649 61.6968 139.292L120.398 105.4C121.017 105.042 121.398 104.382 121.398 103.667V35.8877C121.398 35.1732 121.017 34.5129 120.398 34.1556L61.6968 0.267904Z" fill="white"/>
</svg>
