<svg width="168" height="53" viewBox="0 0 168 53" fill="none" xmlns="http://www.w3.org/2000/svg">
<path d="M6.98418 19.0436C6.90843 18.9989 6.82298 18.9775 6.73946 18.9775C6.65595 18.9775 6.57049 18.9989 6.49475 19.0436L0.71868 22.3803C0.49727 22.5084 0.359375 22.7473 0.359375 23.0018V36.2514C0.359375 36.5077 0.49727 36.7447 0.71868 36.8729L6.49475 40.2076C6.64818 40.2969 6.83075 40.295 6.98418 40.2076C7.13761 40.1183 7.22889 39.9609 7.22889 39.7842V19.4689C7.22889 19.2922 7.13761 19.1329 6.98418 19.0455V19.0436Z" fill="white"/>
<path d="M41.6203 12.2559L21.7536 0.785362C21.439 0.602796 21.0506 0.602796 20.7359 0.785362L12.501 5.53984C12.1864 5.7224 11.9922 6.0584 11.9922 6.42159V42.7949C11.9922 43.1581 12.1864 43.4941 12.501 43.6766L20.734 48.4311C21.0486 48.6117 21.439 48.6117 21.7517 48.4311L27.3665 45.1896C27.5025 45.1119 27.6054 44.9779 27.6249 44.8206C27.6501 44.6186 27.5569 44.4302 27.384 44.3312L19.522 39.7981C19.1142 39.5631 18.8617 39.1261 18.8617 38.6561V11.2518C18.8617 10.6556 19.052 10.0632 19.4444 9.61261C20.2174 8.72503 21.4778 8.558 22.4353 9.11152L34.6012 16.1345C35.0071 16.3695 35.2615 16.8065 35.2615 17.2765V29.3433C35.2615 29.7065 35.4558 30.0425 35.7704 30.225L41.3794 33.4607C41.5154 33.5384 41.6824 33.5617 41.8281 33.4996C42.0165 33.4199 42.1311 33.2452 42.1311 33.047V13.1377C42.1311 12.7745 41.9368 12.4385 41.6222 12.2559H41.6203Z" fill="white"/>
<path d="M38.1836 37.1201L31.1549 33.0648C30.747 32.8298 30.4945 32.3928 30.4945 31.9228V19.5879C30.4945 19.2247 30.3003 18.8888 29.9857 18.7062L24.3883 15.4744C24.0484 15.2782 23.625 15.5229 23.625 15.9153V36.0616C23.625 36.4248 23.8192 36.7627 24.1339 36.9433L37.8962 44.8849C38.2497 45.0889 38.6925 44.8344 38.6925 44.4246V37.9999C38.6925 37.6367 38.4983 37.3007 38.1836 37.1181V37.1201Z" fill="white"/>
<path d="M6.62099 8.93454L0.87017 12.2557C0.553594 12.4363 0.359375 12.7723 0.359375 13.1374V18.7271C0.359375 19.0397 0.697316 19.234 0.96728 19.0786L3.37559 17.688C5.7606 16.311 7.22889 13.7667 7.22889 11.0127V9.28608C7.22889 8.97338 6.89095 8.77916 6.62099 8.93454Z" fill="white"/>
<path d="M133.026 24.4569H131.477V13.3359H133.026V24.4569Z" fill="white"/>
<path d="M144.189 20.4308C144.189 20.9805 144.122 21.4835 143.99 21.9399C143.858 22.3963 143.67 22.7964 143.425 23.1421L144.816 24.6784L143.785 25.5718L142.409 24.0744C142.108 24.2569 141.778 24.3948 141.417 24.4822C141.056 24.5716 140.669 24.6162 140.256 24.6162C139.075 24.6162 138.135 24.2492 137.437 23.5131C136.74 22.777 136.391 21.7496 136.391 20.4308V17.3758C136.391 16.0628 136.74 15.0335 137.437 14.2896C138.135 13.5458 139.073 13.1748 140.248 13.1748C141.423 13.1748 142.4 13.5458 143.116 14.2857C143.831 15.0277 144.19 16.057 144.19 17.3758V20.4308H144.189ZM142.646 17.3525C142.646 16.3852 142.439 15.6511 142.023 15.1481C141.607 14.647 141.015 14.3964 140.248 14.3964C139.481 14.3964 138.933 14.647 138.533 15.1481C138.133 15.6492 137.933 16.3852 137.933 17.3525V20.4308C137.933 21.4077 138.135 22.1497 138.537 22.6527C138.939 23.1557 139.512 23.4082 140.256 23.4082C140.999 23.4082 141.615 23.1577 142.029 22.6566C142.441 22.1555 142.648 21.4136 142.648 20.4308V17.3525H142.646Z" fill="white"/>
<path d="M132.886 41.0299H137.386V42.2069H131.336V31.0859H132.886V41.0319V41.0299Z" fill="white"/>
<path d="M145.347 39.3966H142.024L141.221 42.2069H139.609L142.948 31.0859H144.453L147.761 42.2069H146.149L145.347 39.3966ZM142.375 38.1672H145.003L143.719 33.6457H143.672L142.373 38.1672H142.375Z" fill="white"/>
<path d="M150.445 42.2069V31.0859H153.524C154.588 31.0859 155.419 31.3365 156.017 31.8337C156.616 32.3328 156.915 33.0806 156.915 34.0788C156.915 34.5974 156.785 35.0597 156.526 35.4617C156.268 35.8637 155.905 36.1589 155.443 36.3473C156.089 36.4541 156.587 36.761 156.936 37.2679C157.284 37.7748 157.459 38.3711 157.459 39.0586C157.459 40.0822 157.165 40.8629 156.577 41.399C155.988 41.9369 155.178 42.205 154.143 42.205H150.445V42.2069ZM151.995 35.9045H153.759C154.258 35.889 154.648 35.7278 154.932 35.419C155.215 35.1101 155.355 34.6751 155.355 34.108C155.355 33.4962 155.2 33.0378 154.889 32.7329C154.578 32.428 154.122 32.2746 153.522 32.2746H151.993V35.9026L151.995 35.9045ZM151.995 37.0193V41.0299H154.141C154.701 41.0299 155.134 40.861 155.441 40.5211C155.746 40.1831 155.899 39.6976 155.899 39.0664C155.899 38.4352 155.749 37.9671 155.452 37.6C155.155 37.233 154.736 37.0407 154.196 37.0193H151.995Z" fill="white"/>
<path d="M165.557 39.4102C165.557 38.9014 165.411 38.4819 165.122 38.1536C164.832 37.8254 164.319 37.5263 163.587 37.2563C162.542 36.9301 161.742 36.5105 161.181 35.9959C160.621 35.4812 160.34 34.7975 160.34 33.941C160.34 33.0845 160.649 32.3426 161.268 31.7755C161.888 31.2084 162.68 30.9248 163.647 30.9248C164.677 30.9248 165.5 31.2414 166.122 31.8726C166.743 32.5038 167.044 33.2962 167.023 34.2479L167.007 34.2945H165.518C165.518 33.6419 165.345 33.1156 164.999 32.7136C164.653 32.3115 164.197 32.1095 163.632 32.1095C163.067 32.1095 162.655 32.2824 162.352 32.6281C162.049 32.9738 161.898 33.4069 161.898 33.9274C161.898 34.411 162.059 34.8111 162.379 35.1258C162.7 35.4423 163.24 35.7395 163.999 36.0192C165.013 36.3493 165.784 36.7824 166.314 37.3185C166.844 37.8526 167.108 38.546 167.108 39.3966C167.108 40.3036 166.796 41.0242 166.172 41.5622C165.549 42.1002 164.729 42.3682 163.717 42.3682C162.705 42.3682 161.89 42.0788 161.165 41.4981C160.443 40.9174 160.093 40.0842 160.118 39.0004L160.134 38.9538H161.631C161.631 39.7074 161.831 40.2706 162.232 40.6416C162.632 41.0125 163.127 41.199 163.717 41.199C164.308 41.199 164.743 41.0378 165.069 40.7134C165.395 40.391 165.559 39.956 165.559 39.4102H165.557Z" fill="white"/>
<path d="M121.041 0.317383H120.289V48.8973H121.041V0.317383Z" fill="white"/>
<path d="M55.6157 11.9512H54.3125V17.4437H61.1082C61.1082 14.41 58.6494 11.9512 55.6157 11.9512Z" fill="white"/>
<path d="M88.8959 29.7768V28.194C88.8959 27.0151 88.8649 26.1003 88.8027 25.4477C88.7406 24.7951 88.593 24.0901 88.3599 23.3307C88.1268 22.5713 87.7695 22.0042 87.2897 21.6313C86.8081 21.2584 86.1419 20.8952 85.2893 20.5379C84.4347 20.1824 83.3646 19.9416 82.0789 19.8173C80.7912 19.693 79.2316 19.6309 77.4021 19.6309C72.7486 19.6309 69.6683 20.1436 68.1631 21.1671C66.6579 22.1907 65.9062 24.2552 65.9062 27.3569V35.2227C65.9062 38.5439 66.4947 40.6842 67.6756 41.6456C68.8545 42.6069 71.3677 43.0886 75.2152 43.0886C77.5108 43.0886 79.0471 42.8944 79.822 42.5059C80.597 42.1175 81.3583 41.3037 82.1022 40.0627V52.3023H85.5612C88.3288 52.3023 90.574 50.0591 90.574 47.2896L88.8979 47.678V29.7749L88.8959 29.7768ZM82.1002 29.7768V35.8734C82.1002 37.0834 81.7895 37.8835 81.1699 38.27C80.5484 38.6585 79.1364 38.8527 76.934 38.8527C75.1025 38.8527 73.9391 38.6274 73.4439 38.1788C72.9467 37.7301 72.7 36.8833 72.7 35.6423V26.9393C72.7 25.605 72.9486 24.7524 73.4439 24.3795C73.9391 24.0066 75.2288 23.8202 77.3069 23.8202C79.385 23.8202 80.5873 24.061 81.1932 24.5407C81.7992 25.0224 82.1002 25.8206 82.1002 26.9374V29.7768Z" fill="white"/>
<path d="M101.777 37.8794C101.25 37.9007 100.811 37.4793 100.811 36.953V10.042H94.0156V37.7687C94.0156 40.6975 96.3909 43.0728 99.3197 43.0728C100.31 43.0728 101.299 42.9524 102.26 42.7174L104.486 42.1697V37.7687L101.777 37.8794Z" fill="white"/>
<path d="M51.4688 25.1075H54.3121V42.6222H61.1078V20.0947H56.4835C53.7159 20.0947 51.4707 22.338 51.4707 25.1075H51.4688Z" fill="white"/>
</svg>
