<svg width="451" height="140" viewBox="0 0 451 140" fill="none" xmlns="http://www.w3.org/2000/svg">
<path d="M63.7111 43.409C63.7111 41.8694 62.0444 40.9071 60.7111 41.6769L42.0273 52.4642C41.4085 52.8215 41.0273 53.4818 41.0273 54.1963V63.2598C41.0273 64.3643 41.9228 65.2598 43.0273 65.2598H61.7111C62.8157 65.2598 63.7111 64.3643 63.7111 63.2598V43.409Z" fill="#FAAB21"/>
<path d="M61.6968 0.57723C61.078 0.220012 60.3156 0.220026 59.6969 0.577264L1.00002 34.465C0.381207 34.8222 0 35.4825 0 36.197V103.981C0 104.696 0.381304 105.356 1.00024 105.713L19.4485 116.361C20.7818 117.131 22.4483 116.168 22.4483 114.629V49.1579C22.4483 48.4433 22.8295 47.7831 23.4483 47.4258L59.6969 26.4989C60.3156 26.1417 61.078 26.1417 61.6967 26.4989L97.9497 47.4258C98.5686 47.7831 98.9499 48.4434 98.9499 49.158V91.016C98.9499 91.7305 98.5687 92.3907 97.9499 92.748L65.8706 111.27C64.5372 112.04 62.8705 111.078 62.8705 109.538V74.838C62.8705 73.7335 61.9751 72.838 60.8705 72.838H42.4223C41.3177 72.838 40.4223 73.7335 40.4223 74.838V127.317C40.4223 128.032 40.8034 128.692 41.4222 129.049L59.6968 139.601C60.3156 139.958 61.078 139.958 61.6968 139.601L120.398 105.709C121.017 105.352 121.398 104.691 121.398 103.977V36.1971C121.398 35.4825 121.017 34.8222 120.398 34.465L61.6968 0.57723Z" fill="white"/>
<path d="M424.391 53.8324L411.371 32.7063H422.364L429.549 44.9275L431.208 49.165L432.804 44.9275L440.297 32.7063H450.184L436.673 53.4025L450.86 75.6955H439.99L431.76 62.6145L429.918 58.1928L428.137 62.6145L419.908 75.6955H410.02L424.391 53.8324Z" fill="#FAAB21"/>
<path d="M378.607 32.7063H406.304V40.69H387.696V50.0248H404.585V58.0085H387.696V67.7118H406.611V75.6955H378.607V32.7063Z" fill="#FAAB21"/>
<path d="M373.868 40.69H360.234V75.6955H351.145V40.69H337.511V32.7063H373.868V40.69Z" fill="#FAAB21"/>
<path d="M323.692 57.9471H306.496V75.6955H297.407V32.7063H306.496V49.9634H323.692V32.7063H332.781V75.6955H323.692V57.9471Z" fill="#FAAB21"/>
<path d="M280.353 51.99L280.844 46.5243H280.537L277.405 52.0515L259.779 75.6955H253.024V32.7063H262.113V55.8591L261.499 61.5705H261.867L265.184 55.8591L282.625 32.7063H289.442V75.6955H280.353V51.99Z" fill="#FAAB21"/>
<path d="M230.899 83.3108H224.451L223.468 75.6956H193.376L192.393 83.3108H185.945V67.7118H190.919C191.247 67.2615 191.759 66.2789 192.455 64.764C193.151 63.2492 193.847 61.0792 194.543 58.2542C195.239 55.4292 195.832 51.9286 196.324 47.7525C196.856 43.5355 197.081 38.5201 196.999 32.7063H225.004V67.7118H230.899V83.3108ZM215.914 67.7118V40.69H205.474C205.229 47.7321 204.594 53.5049 203.57 58.0086C202.588 62.5122 201.585 65.7466 200.561 67.7118H215.914Z" fill="white"/>
<path d="M187.052 40.69H173.419V75.6955H164.33V40.69H150.696V32.7063H187.052V40.69Z" fill="white"/>
<path d="M447.515 96.4045H449.657V111.401H447.515V96.4045ZM435.347 96.4045H437.489V102.125C437.575 102.11 437.689 102.096 437.832 102.082C437.975 102.053 438.132 102.032 438.303 102.017C438.489 102.003 438.674 101.989 438.86 101.975C439.06 101.96 439.253 101.953 439.438 101.953C440.181 101.953 440.902 102.025 441.602 102.167C442.302 102.31 442.923 102.56 443.466 102.917C444.009 103.26 444.437 103.724 444.751 104.31C445.08 104.895 445.244 105.631 445.244 106.516C445.244 107.373 445.087 108.123 444.773 108.766C444.473 109.408 444.052 109.937 443.509 110.351C442.966 110.765 442.316 111.079 441.559 111.294C440.802 111.494 439.967 111.594 439.053 111.594C438.839 111.594 438.582 111.586 438.282 111.572C437.982 111.572 437.66 111.558 437.318 111.529C436.989 111.501 436.653 111.465 436.311 111.422C435.968 111.379 435.647 111.322 435.347 111.251V96.4045ZM439.224 109.751C439.753 109.751 440.245 109.687 440.702 109.558C441.16 109.43 441.552 109.237 441.881 108.98C442.224 108.723 442.488 108.402 442.673 108.016C442.873 107.63 442.973 107.18 442.973 106.666C442.973 106.095 442.866 105.624 442.652 105.252C442.438 104.881 442.152 104.588 441.795 104.374C441.452 104.16 441.045 104.01 440.574 103.924C440.117 103.838 439.631 103.796 439.117 103.796C438.846 103.796 438.546 103.817 438.217 103.86C437.889 103.903 437.646 103.946 437.489 103.988V109.623C437.689 109.68 437.932 109.716 438.217 109.73C438.517 109.744 438.853 109.751 439.224 109.751Z" fill="white"/>
<path d="M421.907 98.2898H417.193C417.122 99.7037 417.036 100.989 416.936 102.146C416.851 103.303 416.736 104.353 416.594 105.295C416.451 106.224 416.279 107.045 416.079 107.759C415.894 108.473 415.658 109.094 415.372 109.623C415.001 110.308 414.573 110.794 414.087 111.079C413.601 111.365 413.094 111.508 412.566 111.508C412.266 111.508 412.016 111.486 411.816 111.444C411.631 111.415 411.438 111.365 411.238 111.294L411.516 109.494C411.688 109.537 411.859 109.558 412.03 109.558C412.202 109.558 412.373 109.53 412.545 109.473C412.73 109.401 412.909 109.294 413.08 109.151C413.252 108.994 413.416 108.78 413.573 108.509C413.787 108.137 413.987 107.637 414.173 107.009C414.358 106.381 414.523 105.581 414.665 104.61C414.808 103.638 414.923 102.482 415.008 101.139C415.108 99.7823 415.18 98.2041 415.222 96.4045H424.049V111.401H421.907V98.2898Z" fill="white"/>
<path d="M399.911 107.481H393.976L392.391 111.401H390.292L396.461 96.1909H397.575L403.767 111.401H401.539L399.911 107.481ZM394.619 105.681H399.289L397.554 101.418L396.976 99.1259H396.933L396.354 101.461L394.619 105.681Z" fill="white"/>
<path d="M378.57 101.482L378.698 99.8323H378.612L377.584 101.525L369.893 111.401H368.586V96.4045H370.729V106.388L370.536 108.016H370.643L371.714 106.323L379.384 96.4045H380.712V111.401H378.57V101.482Z" fill="white"/>
<path d="M347.93 96.5542C348.53 96.4257 349.179 96.34 349.879 96.2971C350.593 96.24 351.293 96.2114 351.979 96.2114C352.707 96.2114 353.443 96.2757 354.185 96.4042C354.942 96.5328 355.628 96.7684 356.242 97.1112C356.856 97.454 357.356 97.9324 357.742 98.5466C358.141 99.1464 358.341 99.9248 358.341 100.882C358.341 101.781 358.163 102.553 357.806 103.195C357.449 103.824 356.97 104.338 356.37 104.738C355.785 105.138 355.106 105.431 354.335 105.616C353.578 105.802 352.793 105.895 351.979 105.895C351.893 105.895 351.757 105.895 351.572 105.895C351.4 105.88 351.215 105.873 351.015 105.873C350.829 105.859 350.643 105.845 350.458 105.83C350.286 105.816 350.158 105.802 350.072 105.788V111.4H347.93V96.5542ZM352.043 98.0538C351.657 98.0538 351.279 98.061 350.907 98.0752C350.55 98.0895 350.272 98.1252 350.072 98.1824V103.945C350.143 103.974 350.258 103.995 350.415 104.009C350.586 104.009 350.758 104.017 350.929 104.031C351.115 104.045 351.286 104.052 351.443 104.052C351.614 104.052 351.743 104.052 351.829 104.052C352.343 104.052 352.85 104.017 353.35 103.945C353.85 103.86 354.3 103.702 354.699 103.474C355.114 103.245 355.442 102.924 355.685 102.51C355.942 102.096 356.07 101.56 356.07 100.903C356.07 100.332 355.949 99.8605 355.706 99.4892C355.463 99.1178 355.149 98.8251 354.764 98.6108C354.378 98.3966 353.942 98.2538 353.457 98.1824C352.986 98.0967 352.514 98.0538 352.043 98.0538Z" fill="white"/>
<path d="M327.899 96.4048H336.961V98.2472H330.041V102.81H336.361V104.653H330.041V109.559H337.068V111.401H327.899V96.4048Z" fill="white"/>
<path d="M318.086 98.2898H313.03V111.401H310.887V98.2898H305.832V96.4045H318.086V98.2898Z" fill="white"/>
<path d="M295.346 107.481H289.412L287.827 111.401H285.727L291.897 96.1909H293.011L299.202 111.401H296.974L295.346 107.481ZM290.055 105.681H294.725L292.99 101.418L292.411 99.1259H292.368L291.79 101.461L290.055 105.681Z" fill="white"/>
<path d="M274.008 101.739L274.244 99.3398H274.158L273.237 101.418L269.059 108.059H268.416L264.025 101.396L263.146 99.3612H263.039L263.382 101.718V111.401H261.368V96.4048H262.975L268.052 104.053L268.845 105.681H268.888L269.638 104.01L274.458 96.4048H276.15V111.401H274.008V101.739Z" fill="white"/>
<path d="M247.905 101.484L248.034 99.834H247.948L246.92 101.526L239.229 111.403H237.922V96.4063H240.064V106.39L239.871 108.018H239.979L241.05 106.325L248.719 96.4063H250.047V111.403H247.905V101.484ZM242.078 92.7429C242.149 93.2571 242.364 93.6498 242.721 93.9212C243.092 94.1783 243.578 94.3068 244.177 94.3068C244.777 94.3068 245.256 94.1783 245.613 93.9212C245.984 93.6498 246.206 93.2642 246.277 92.7643L248.076 93.15C247.891 93.9355 247.484 94.5496 246.855 94.9924C246.227 95.4351 245.327 95.6565 244.156 95.6565C243.028 95.6565 242.099 95.4637 241.371 95.0781C240.657 94.6924 240.228 94.064 240.086 93.1928L242.078 92.7429Z" fill="white"/>
<path d="M213.767 103.903C213.767 102.675 213.917 101.582 214.217 100.625C214.531 99.6539 214.974 98.8398 215.545 98.1828C216.131 97.5116 216.838 97.0046 217.666 96.6618C218.509 96.3047 219.459 96.1262 220.515 96.1262C221.644 96.1262 222.629 96.319 223.472 96.7046C224.329 97.076 225.036 97.6044 225.593 98.29C226.164 98.9612 226.585 99.7753 226.857 100.732C227.142 101.689 227.285 102.746 227.285 103.903C227.285 105.131 227.128 106.231 226.814 107.202C226.514 108.159 226.071 108.973 225.486 109.644C224.9 110.301 224.186 110.808 223.343 111.165C222.515 111.508 221.572 111.679 220.515 111.679C219.373 111.679 218.38 111.494 217.538 111.122C216.695 110.737 215.995 110.208 215.438 109.537C214.881 108.852 214.46 108.03 214.174 107.073C213.903 106.117 213.767 105.06 213.767 103.903ZM216.038 103.903C216.038 104.717 216.124 105.481 216.295 106.195C216.481 106.909 216.752 107.538 217.109 108.08C217.48 108.623 217.945 109.052 218.502 109.366C219.073 109.68 219.744 109.837 220.515 109.837C221.901 109.837 222.993 109.359 223.793 108.402C224.607 107.445 225.014 105.945 225.014 103.903C225.014 103.103 224.921 102.346 224.736 101.632C224.564 100.918 224.293 100.289 223.922 99.7467C223.565 99.204 223.1 98.7756 222.529 98.4614C221.972 98.1329 221.301 97.9686 220.515 97.9686C219.144 97.9686 218.052 98.4542 217.238 99.4254C216.438 100.397 216.038 101.889 216.038 103.903Z" fill="white"/>
<path d="M194.113 96.5542C194.713 96.4257 195.362 96.34 196.062 96.2971C196.776 96.24 197.476 96.2114 198.162 96.2114C198.89 96.2114 199.626 96.2757 200.368 96.4042C201.125 96.5328 201.811 96.7684 202.425 97.1112C203.039 97.454 203.539 97.9324 203.925 98.5466C204.325 99.1464 204.524 99.9248 204.524 100.882C204.524 101.781 204.346 102.553 203.989 103.195C203.632 103.824 203.153 104.338 202.554 104.738C201.968 105.138 201.29 105.431 200.518 105.616C199.761 105.802 198.976 105.895 198.162 105.895C198.076 105.895 197.94 105.895 197.755 105.895C197.583 105.88 197.398 105.873 197.198 105.873C197.012 105.859 196.826 105.845 196.641 105.83C196.469 105.816 196.341 105.802 196.255 105.788V111.4H194.113V96.5542ZM198.226 98.0538C197.84 98.0538 197.462 98.061 197.091 98.0752C196.734 98.0895 196.455 98.1252 196.255 98.1824V103.945C196.327 103.974 196.441 103.995 196.598 104.009C196.769 104.009 196.941 104.017 197.112 104.031C197.298 104.045 197.469 104.052 197.626 104.052C197.798 104.052 197.926 104.052 198.012 104.052C198.526 104.052 199.033 104.017 199.533 103.945C200.033 103.86 200.483 103.702 200.883 103.474C201.297 103.245 201.625 102.924 201.868 102.51C202.125 102.096 202.254 101.56 202.254 100.903C202.254 100.332 202.132 99.8605 201.889 99.4892C201.647 99.1178 201.332 98.8251 200.947 98.6108C200.561 98.3966 200.126 98.2538 199.64 98.1824C199.169 98.0967 198.697 98.0538 198.226 98.0538Z" fill="white"/>
<path d="M184.301 98.29H179.246V111.401H177.103V98.29H172.047V96.4048H184.301V98.29Z" fill="white"/>
<path d="M163.893 110.758C163.422 111.101 162.822 111.337 162.094 111.465C161.365 111.608 160.594 111.679 159.78 111.679C158.823 111.679 157.909 111.53 157.038 111.23C156.181 110.915 155.424 110.444 154.767 109.816C154.11 109.173 153.589 108.366 153.203 107.395C152.817 106.409 152.625 105.245 152.625 103.903C152.625 102.503 152.839 101.311 153.267 100.325C153.696 99.3397 154.253 98.5399 154.938 97.9258C155.624 97.2974 156.395 96.8403 157.252 96.5547C158.109 96.269 158.959 96.1262 159.801 96.1262C160.744 96.1262 161.515 96.1762 162.115 96.2762C162.715 96.3762 163.222 96.5047 163.636 96.6618L163.165 98.5042C162.465 98.1757 161.401 98.0115 159.973 98.0115C159.33 98.0115 158.702 98.1186 158.087 98.3328C157.488 98.5328 156.945 98.8684 156.459 99.3397C155.988 99.7967 155.609 100.404 155.324 101.161C155.038 101.903 154.895 102.817 154.895 103.903C154.895 104.874 155.031 105.731 155.302 106.474C155.574 107.202 155.945 107.816 156.416 108.316C156.902 108.802 157.466 109.173 158.109 109.43C158.766 109.673 159.48 109.794 160.251 109.794C160.951 109.794 161.558 109.73 162.072 109.601C162.586 109.473 163.022 109.309 163.379 109.109L163.893 110.758Z" fill="white"/>
</svg>
