<svg width="272" height="93" viewBox="0 0 272 93" fill="none" xmlns="http://www.w3.org/2000/svg">
<path d="M41.984 26.3235L27.0356 34.9541V43.0057H41.984V26.3235Z" fill="white"/>
<path d="M39.9985 0L0 23.0925V69.2834L14.7932 77.8215V31.6335L39.9985 17.0821L65.2068 31.6335V60.7394L41.431 74.4671V47.9994H26.6378V84.6615L39.9985 92.3759L80 69.2804V23.0925L39.9985 0Z" fill="#FAAB21"/>
<path d="M247.569 56.9999L254.449 38.3809L247.827 22.1699H254.535L258.663 32.1889L262.146 22.1699H268.123L261.759 40.0149L268.725 56.9999H262.103L257.545 46.0349L253.546 56.9999H247.569Z" fill="#FAAB21"/>
<path d="M230.993 56.9999V22.1699H246.172V27.0719H238.088V36.3169H244.323V41.2619H238.088V52.1839H246.258V56.9999H230.993Z" fill="#FAAB21"/>
<path d="M215.407 56.9999V27.4589H210.032V22.1699H227.834V27.4589H222.545V56.9999H215.407Z" fill="#FAAB21"/>
<path d="M186.442 56.9999V22.1699H193.537V36.4889H199.686V22.1699H206.781V56.9999H199.686V41.5629H193.537V56.9999H186.442Z" fill="#FAAB21"/>
<path d="M161.498 56.9999V22.1699H167.174V43.0249L176.376 22.1699H181.02V56.9999H175.258V35.8009L165.97 56.9999H161.498Z" fill="#FAAB21"/>
<path d="M119.586 64.2669V51.9259H120.661C121.291 51.6966 121.879 51.3239 122.424 50.8079C122.968 50.2633 123.456 49.5609 123.886 48.7009C124.344 47.8123 124.76 46.7086 125.133 45.3899C125.505 44.0713 125.821 42.4659 126.079 40.5739C126.337 38.6819 126.552 36.4746 126.724 33.9519L127.584 22.1699H143.451V51.9259H147.235V64.2669H142.462L142.075 56.9999H124.961L124.531 64.2669H119.586ZM127.369 51.9259H136.786V27.2439H133.045L132.658 34.8119C132.514 37.3919 132.314 39.5849 132.056 41.3909C131.798 43.1969 131.482 44.7019 131.11 45.9059C130.766 47.0813 130.393 48.0416 129.992 48.7869C129.59 49.5323 129.16 50.1343 128.702 50.5929C128.243 51.0516 127.799 51.4959 127.369 51.9259Z" fill="white"/>
<path d="M105.891 56.9999V27.4589H100.516V22.1699H118.318V27.4589H113.029V56.9999H105.891Z" fill="white"/>
<path d="M269.825 71.2H271.225V81H269.825V71.2ZM261.873 71.2H263.273V74.938C263.329 74.9286 263.404 74.9193 263.497 74.91C263.59 74.8913 263.693 74.8773 263.805 74.868C263.926 74.8586 264.048 74.8493 264.169 74.84C264.3 74.8306 264.426 74.826 264.547 74.826C265.032 74.826 265.504 74.8726 265.961 74.966C266.418 75.0593 266.824 75.2226 267.179 75.456C267.534 75.68 267.814 75.9833 268.019 76.366C268.234 76.7486 268.341 77.2293 268.341 77.808C268.341 78.368 268.238 78.858 268.033 79.278C267.837 79.698 267.562 80.0433 267.207 80.314C266.852 80.5846 266.428 80.79 265.933 80.93C265.438 81.0606 264.892 81.126 264.295 81.126C264.155 81.126 263.987 81.1213 263.791 81.112C263.595 81.112 263.385 81.1026 263.161 81.084C262.946 81.0653 262.727 81.042 262.503 81.014C262.279 80.986 262.069 80.9486 261.873 80.902V71.2ZM264.407 79.922C264.752 79.922 265.074 79.88 265.373 79.796C265.672 79.712 265.928 79.586 266.143 79.418C266.367 79.25 266.54 79.04 266.661 78.788C266.792 78.536 266.857 78.242 266.857 77.906C266.857 77.5326 266.787 77.2246 266.647 76.982C266.507 76.7393 266.32 76.548 266.087 76.408C265.863 76.268 265.597 76.17 265.289 76.114C264.99 76.058 264.673 76.03 264.337 76.03C264.16 76.03 263.964 76.044 263.749 76.072C263.534 76.1 263.376 76.128 263.273 76.156V79.838C263.404 79.8753 263.562 79.8986 263.749 79.908C263.945 79.9173 264.164 79.922 264.407 79.922Z" fill="white"/>
<path d="M254.986 72.432H251.906C251.86 73.356 251.804 74.196 251.738 74.952C251.682 75.708 251.608 76.394 251.514 77.01C251.421 77.6166 251.309 78.1533 251.178 78.62C251.057 79.0866 250.903 79.4926 250.716 79.838C250.474 80.286 250.194 80.6033 249.876 80.79C249.559 80.9766 249.228 81.07 248.882 81.07C248.686 81.07 248.523 81.056 248.392 81.028C248.271 81.0093 248.145 80.9766 248.014 80.93L248.196 79.754C248.308 79.782 248.42 79.796 248.532 79.796C248.644 79.796 248.756 79.7773 248.868 79.74C248.99 79.6933 249.106 79.6233 249.218 79.53C249.33 79.4273 249.438 79.2873 249.54 79.11C249.68 78.8673 249.811 78.5406 249.932 78.13C250.054 77.7193 250.161 77.1966 250.254 76.562C250.348 75.9273 250.422 75.1713 250.478 74.294C250.544 73.4073 250.59 72.376 250.618 71.2H256.386V81H254.986V72.432Z" fill="white"/>
<path d="M242.513 78.4378H238.635L237.599 80.9998H236.227L240.259 71.0598H240.987L245.033 80.9998H243.577L242.513 78.4378ZM239.055 77.2618H242.107L240.973 74.4758L240.595 72.9778H240.567L240.189 74.5038L239.055 77.2618Z" fill="white"/>
<path d="M230.467 74.518L230.551 73.44H230.495L229.823 74.546L224.797 81H223.943V71.2H225.343V77.724L225.217 78.788H225.287L225.987 77.682L230.999 71.2H231.867V81H230.467V74.518Z" fill="white"/>
<path d="M212.344 71.298C212.736 71.214 213.16 71.158 213.618 71.13C214.084 71.0926 214.542 71.074 214.99 71.074C215.466 71.074 215.946 71.116 216.432 71.2C216.926 71.284 217.374 71.438 217.776 71.662C218.177 71.886 218.504 72.1986 218.756 72.6C219.017 72.992 219.148 73.5006 219.148 74.126C219.148 74.714 219.031 75.218 218.798 75.638C218.564 76.0486 218.252 76.3846 217.86 76.646C217.477 76.9073 217.034 77.0986 216.53 77.22C216.035 77.3413 215.522 77.402 214.99 77.402C214.934 77.402 214.845 77.402 214.724 77.402C214.612 77.3926 214.49 77.388 214.36 77.388C214.238 77.3786 214.117 77.3693 213.996 77.36C213.884 77.3506 213.8 77.3413 213.744 77.332V81H212.344V71.298ZM215.032 72.278C214.78 72.278 214.532 72.2826 214.29 72.292C214.056 72.3013 213.874 72.3246 213.744 72.362V76.128C213.79 76.1466 213.865 76.1606 213.968 76.17C214.08 76.17 214.192 76.1746 214.304 76.184C214.425 76.1933 214.537 76.198 214.64 76.198C214.752 76.198 214.836 76.198 214.892 76.198C215.228 76.198 215.559 76.1746 215.886 76.128C216.212 76.072 216.506 75.9693 216.768 75.82C217.038 75.6706 217.253 75.4606 217.412 75.19C217.58 74.9193 217.664 74.5693 217.664 74.14C217.664 73.7666 217.584 73.4586 217.426 73.216C217.267 72.9733 217.062 72.782 216.81 72.642C216.558 72.502 216.273 72.4086 215.956 72.362C215.648 72.306 215.34 72.278 215.032 72.278Z" fill="white"/>
<path d="M201.154 71.2H207.076V72.404H202.554V75.386H206.684V76.59H202.554V79.796H207.146V81H201.154V71.2Z" fill="white"/>
<path d="M196.637 72.432H193.333V81H191.933V72.432H188.629V71.2H196.637V72.432Z" fill="white"/>
<path d="M183.681 78.4378H179.803L178.767 80.9998H177.395L181.427 71.0598H182.155L186.201 80.9998H184.745L183.681 78.4378ZM180.223 77.2618H183.275L182.141 74.4758L181.763 72.9778H181.735L181.357 74.5038L180.223 77.2618Z" fill="white"/>
<path d="M171.635 74.686L171.789 73.118H171.733L171.131 74.476L168.401 78.816H167.981L165.111 74.462L164.537 73.132H164.467L164.691 74.672V81H163.375V71.2H164.425L167.743 76.198L168.261 77.262H168.289L168.779 76.17L171.929 71.2H173.035V81H171.635V74.686Z" fill="white"/>
<path d="M156.481 74.5179L156.565 73.4399H156.509L155.837 74.5459L150.811 80.9999H149.957V71.1999H151.357V77.7239L151.231 78.7879H151.301L152.001 77.6819L157.013 71.1999H157.881V80.9999H156.481V74.5179ZM152.673 68.8059C152.72 69.1419 152.86 69.3986 153.093 69.5759C153.336 69.7439 153.653 69.8279 154.045 69.8279C154.437 69.8279 154.75 69.7439 154.983 69.5759C155.226 69.3986 155.37 69.1466 155.417 68.8199L156.593 69.0719C156.472 69.5852 156.206 69.9866 155.795 70.2759C155.384 70.5652 154.796 70.7099 154.031 70.7099C153.294 70.7099 152.687 70.5839 152.211 70.3319C151.744 70.0799 151.464 69.6692 151.371 69.0999L152.673 68.8059Z" fill="white"/>
<path d="M136.064 76.0998C136.064 75.2972 136.162 74.5832 136.358 73.9578C136.563 73.3232 136.853 72.7912 137.226 72.3618C137.609 71.9232 138.071 71.5918 138.612 71.3678C139.163 71.1345 139.783 71.0178 140.474 71.0178C141.211 71.0178 141.855 71.1438 142.406 71.3958C142.966 71.6385 143.428 71.9838 143.792 72.4318C144.165 72.8705 144.441 73.4025 144.618 74.0278C144.805 74.6532 144.898 75.3438 144.898 76.0998C144.898 76.9025 144.795 77.6212 144.59 78.2558C144.394 78.8812 144.105 79.4132 143.722 79.8518C143.339 80.2812 142.873 80.6125 142.322 80.8458C141.781 81.0698 141.165 81.1818 140.474 81.1818C139.727 81.1818 139.079 81.0605 138.528 80.8178C137.977 80.5658 137.52 80.2205 137.156 79.7818C136.792 79.3338 136.517 78.7972 136.33 78.1718C136.153 77.5465 136.064 76.8558 136.064 76.0998ZM137.548 76.0998C137.548 76.6318 137.604 77.1312 137.716 77.5978C137.837 78.0645 138.015 78.4752 138.248 78.8298C138.491 79.1845 138.794 79.4645 139.158 79.6698C139.531 79.8752 139.97 79.9778 140.474 79.9778C141.379 79.9778 142.093 79.6652 142.616 79.0398C143.148 78.4145 143.414 77.4345 143.414 76.0998C143.414 75.5772 143.353 75.0825 143.232 74.6158C143.12 74.1492 142.943 73.7385 142.7 73.3838C142.467 73.0292 142.163 72.7492 141.79 72.5438C141.426 72.3292 140.987 72.2218 140.474 72.2218C139.578 72.2218 138.864 72.5392 138.332 73.1738C137.809 73.8085 137.548 74.7838 137.548 76.0998Z" fill="white"/>
<path d="M125.131 71.298C125.523 71.214 125.948 71.158 126.405 71.13C126.872 71.0926 127.329 71.074 127.777 71.074C128.253 71.074 128.734 71.116 129.219 71.2C129.714 71.284 130.162 71.438 130.563 71.662C130.964 71.886 131.291 72.1986 131.543 72.6C131.804 72.992 131.935 73.5006 131.935 74.126C131.935 74.714 131.818 75.218 131.585 75.638C131.352 76.0486 131.039 76.3846 130.647 76.646C130.264 76.9073 129.821 77.0986 129.317 77.22C128.822 77.3413 128.309 77.402 127.777 77.402C127.721 77.402 127.632 77.402 127.511 77.402C127.399 77.3926 127.278 77.388 127.147 77.388C127.026 77.3786 126.904 77.3693 126.783 77.36C126.671 77.3506 126.587 77.3413 126.531 77.332V81H125.131V71.298ZM127.819 72.278C127.567 72.278 127.32 72.2826 127.077 72.292C126.844 72.3013 126.662 72.3246 126.531 72.362V76.128C126.578 76.1466 126.652 76.1606 126.755 76.17C126.867 76.17 126.979 76.1746 127.091 76.184C127.212 76.1933 127.324 76.198 127.427 76.198C127.539 76.198 127.623 76.198 127.679 76.198C128.015 76.198 128.346 76.1746 128.673 76.128C129 76.072 129.294 75.9693 129.555 75.82C129.826 75.6706 130.04 75.4606 130.199 75.19C130.367 74.9193 130.451 74.5693 130.451 74.14C130.451 73.7666 130.372 73.4586 130.213 73.216C130.054 72.9733 129.849 72.782 129.597 72.642C129.345 72.502 129.06 72.4086 128.743 72.362C128.435 72.306 128.127 72.278 127.819 72.278Z" fill="white"/>
<path d="M120.614 72.432H117.31V81H115.91V72.432H112.606V71.2H120.614V72.432Z" fill="white"/>
<path d="M109.176 80.5798C108.868 80.8038 108.476 80.9578 108 81.0418C107.524 81.1352 107.02 81.1818 106.488 81.1818C105.863 81.1818 105.265 81.0838 104.696 80.8878C104.136 80.6825 103.641 80.3745 103.212 79.9638C102.783 79.5438 102.442 79.0165 102.19 78.3818C101.938 77.7378 101.812 76.9772 101.812 76.0998C101.812 75.1852 101.952 74.4058 102.232 73.7618C102.512 73.1178 102.876 72.5952 103.324 72.1938C103.772 71.7832 104.276 71.4845 104.836 71.2978C105.396 71.1112 105.951 71.0178 106.502 71.0178C107.118 71.0178 107.622 71.0505 108.014 71.1158C108.406 71.1812 108.737 71.2652 109.008 71.3678L108.7 72.5718C108.243 72.3572 107.547 72.2498 106.614 72.2498C106.194 72.2498 105.783 72.3198 105.382 72.4598C104.99 72.5905 104.635 72.8098 104.318 73.1178C104.01 73.4165 103.763 73.8132 103.576 74.3078C103.389 74.7932 103.296 75.3905 103.296 76.0998C103.296 76.7345 103.385 77.2945 103.562 77.7798C103.739 78.2558 103.982 78.6572 104.29 78.9838C104.607 79.3012 104.976 79.5438 105.396 79.7118C105.825 79.8705 106.292 79.9498 106.796 79.9498C107.253 79.9498 107.65 79.9078 107.986 79.8238C108.322 79.7398 108.607 79.6325 108.84 79.5018L109.176 80.5798Z" fill="white"/>
</svg>
