<svg width="168" height="53" viewBox="0 0 168 53" fill="none" xmlns="http://www.w3.org/2000/svg">
<path d="M7.08574 19.36C7.01 19.3153 6.92454 19.2939 6.84102 19.2939C6.75751 19.2939 6.67205 19.3153 6.59631 19.36L0.820242 22.6967C0.598833 22.8248 0.460938 23.0637 0.460938 23.3182V36.5678C0.460938 36.8241 0.598833 37.0611 0.820242 37.1893L6.59631 40.524C6.74974 40.6133 6.93231 40.6114 7.08574 40.524C7.23917 40.4347 7.33046 40.2773 7.33046 40.1006V19.7853C7.33046 19.6086 7.23917 19.4493 7.08574 19.3619V19.36Z" fill="#AAB0B4"/>
<path d="M41.7218 12.5723L21.8552 1.10177C21.5406 0.919202 21.1521 0.919202 20.8375 1.10177L12.6026 5.85624C12.288 6.03881 12.0938 6.37481 12.0938 6.738V43.1113C12.0938 43.4745 12.288 43.8105 12.6026 43.993L20.8355 48.7475C21.1502 48.9281 21.5406 48.9281 21.8532 48.7475L27.4681 45.506C27.6041 45.4283 27.707 45.2943 27.7264 45.137C27.7517 44.935 27.6584 44.7466 27.4856 44.6476L19.6236 40.1145C19.2158 39.8795 18.9633 39.4425 18.9633 38.9725V11.5682C18.9633 10.972 19.1536 10.3796 19.5459 9.92901C20.3189 9.04143 21.5794 8.8744 22.5369 9.42793L34.7028 16.4509C35.1087 16.6859 35.3631 17.1229 35.3631 17.5929V29.6597C35.3631 30.0229 35.5573 30.3589 35.872 30.5415L41.481 33.7771C41.6169 33.8548 41.784 33.8781 41.9296 33.816C42.118 33.7364 42.2326 33.5616 42.2326 33.3635V13.4541C42.2326 13.0909 42.0384 12.7549 41.7238 12.5723H41.7218Z" fill="#AAB0B4"/>
<path d="M38.2852 37.4365L31.2564 33.3812C30.8486 33.1462 30.5961 32.7092 30.5961 32.2392V19.9043C30.5961 19.5412 30.4019 19.2052 30.0872 19.0226L24.4898 15.7908C24.15 15.5946 23.7266 15.8393 23.7266 16.2317V36.378C23.7266 36.7412 23.9208 37.0791 24.2354 37.2597L37.9978 45.2013C38.3512 45.4053 38.7941 45.1509 38.7941 44.741V38.3163C38.7941 37.9531 38.5998 37.6171 38.2852 37.4345V37.4365Z" fill="#AAB0B4"/>
<path d="M6.72255 9.25095L0.971733 12.5721C0.655156 12.7527 0.460938 13.0887 0.460938 13.4538V19.0435C0.460938 19.3562 0.798878 19.5504 1.06884 19.395L3.47716 18.0044C5.86216 16.6274 7.33046 14.0831 7.33046 11.3291V9.60248C7.33046 9.28979 6.99252 9.09557 6.72255 9.25095Z" fill="#AAB0B4"/>
<path d="M133.128 24.7733H131.578V13.6523H133.128V24.7733Z" fill="#AAB0B4"/>
<path d="M144.29 20.7472C144.29 21.2969 144.224 21.7999 144.092 22.2563C143.96 22.7127 143.772 23.1128 143.527 23.4585L144.917 24.9948L143.886 25.8882L142.511 24.3908C142.21 24.5733 141.88 24.7112 141.519 24.7986C141.157 24.888 140.771 24.9326 140.357 24.9326C139.176 24.9326 138.236 24.5656 137.539 23.8295C136.842 23.0934 136.492 22.066 136.492 20.7472V17.6922C136.492 16.3792 136.842 15.3499 137.539 14.606C138.236 13.8622 139.174 13.4912 140.349 13.4912C141.524 13.4912 142.501 13.8622 143.218 14.6021C143.933 15.3441 144.292 16.3734 144.292 17.6922V20.7472H144.29ZM142.748 17.6689C142.748 16.7016 142.54 15.9675 142.125 15.4645C141.709 14.9634 141.117 14.7128 140.349 14.7128C139.582 14.7128 139.035 14.9634 138.634 15.4645C138.234 15.9656 138.034 16.7016 138.034 17.6689V20.7472C138.034 21.7241 138.236 22.4661 138.638 22.9691C139.04 23.4721 139.613 23.7246 140.357 23.7246C141.101 23.7246 141.717 23.4741 142.13 22.973C142.542 22.4719 142.75 21.73 142.75 20.7472V17.6689H142.748Z" fill="#AAB0B4"/>
<path d="M132.987 41.3463H137.487V42.5233H131.438V31.4023H132.987V41.3483V41.3463Z" fill="#AAB0B4"/>
<path d="M145.448 39.713H142.125L141.323 42.5233H139.711L143.05 31.4023H144.555L147.862 42.5233H146.25L145.448 39.713ZM142.477 38.4836H145.104L143.821 33.9621H143.774L142.475 38.4836H142.477Z" fill="#AAB0B4"/>
<path d="M150.547 42.5233V31.4023H153.625C154.69 31.4023 155.521 31.6529 156.119 32.1501C156.717 32.6492 157.016 33.397 157.016 34.3953C157.016 34.9138 156.886 35.3761 156.628 35.7781C156.37 36.1801 156.006 36.4753 155.544 36.6637C156.191 36.7705 156.688 37.0774 157.038 37.5843C157.385 38.0912 157.56 38.6875 157.56 39.375C157.56 40.3986 157.267 41.1793 156.678 41.7154C156.09 42.2533 155.28 42.5214 154.245 42.5214H150.547V42.5233ZM152.097 36.2209H153.86C154.359 36.2054 154.75 36.0442 155.033 35.7354C155.317 35.4266 155.457 34.9915 155.457 34.4244C155.457 33.8126 155.301 33.3542 154.991 33.0493C154.68 32.7444 154.223 32.591 153.623 32.591H152.095V36.219L152.097 36.2209ZM152.097 37.3357V41.3463H154.243C154.802 41.3463 155.235 41.1774 155.542 40.8375C155.847 40.4996 156.001 40.014 156.001 39.3828C156.001 38.7516 155.851 38.2835 155.554 37.9164C155.257 37.5494 154.837 37.3571 154.297 37.3357H152.097Z" fill="#AAB0B4"/>
<path d="M165.658 39.7266C165.658 39.2178 165.512 38.7983 165.223 38.47C164.934 38.1418 164.421 37.8427 163.689 37.5727C162.644 37.2465 161.844 36.8269 161.282 36.3123C160.723 35.7976 160.441 35.1139 160.441 34.2574C160.441 33.4009 160.75 32.659 161.37 32.0919C161.989 31.5248 162.782 31.2412 163.749 31.2412C164.778 31.2412 165.602 31.5578 166.223 32.189C166.845 32.8202 167.146 33.6126 167.125 34.5643L167.109 34.6109H165.619C165.619 33.9583 165.446 33.432 165.101 33.03C164.755 32.6279 164.299 32.4259 163.733 32.4259C163.168 32.4259 162.757 32.5988 162.454 32.9445C162.151 33.2902 161.999 33.7233 161.999 34.2438C161.999 34.7274 162.16 35.1275 162.481 35.4422C162.801 35.7587 163.341 36.0559 164.101 36.3356C165.114 36.6657 165.885 37.0988 166.416 37.6349C166.946 38.169 167.21 38.8624 167.21 39.713C167.21 40.62 166.897 41.3406 166.274 41.8786C165.65 42.4166 164.831 42.6846 163.819 42.6846C162.807 42.6846 161.991 42.3952 161.267 41.8145C160.544 41.2338 160.195 40.4006 160.22 39.3168L160.236 39.2702H161.733C161.733 40.0238 161.933 40.587 162.333 40.958C162.733 41.3289 163.228 41.5154 163.819 41.5154C164.409 41.5154 164.844 41.3542 165.171 41.0298C165.497 40.7074 165.66 40.2724 165.66 39.7266H165.658Z" fill="#AAB0B4"/>
<path d="M121.142 0.633789H120.391V49.2137H121.142V0.633789Z" fill="#AAB0B4"/>
<path d="M55.7173 12.2676H54.4141V17.7601H61.2098C61.2098 14.7264 58.751 12.2676 55.7173 12.2676Z" fill="#AAB0B4"/>
<path d="M88.9975 30.0933V28.5104C88.9975 27.3315 88.9664 26.4167 88.9043 25.7641C88.8421 25.1115 88.6945 24.4065 88.4615 23.6471C88.2284 22.8877 87.871 22.3206 87.3913 21.9477C86.9096 21.5748 86.2435 21.2116 85.3909 20.8543C84.5363 20.4988 83.4661 20.258 82.1804 20.1337C80.8927 20.0094 79.3332 19.9473 77.5036 19.9473C72.8501 19.9473 69.7698 20.46 68.2646 21.4835C66.7594 22.5071 66.0078 24.5716 66.0078 27.6733V35.5392C66.0078 38.8603 66.5963 41.0006 67.7771 41.962C68.9561 42.9233 71.4692 43.405 75.3167 43.405C77.6124 43.405 79.1487 43.2108 79.9236 42.8224C80.6985 42.4339 81.4599 41.6201 82.2037 40.3791V52.6188H85.6628C88.4304 52.6188 90.6755 50.3755 90.6755 47.606L88.9994 47.9944V30.0913L88.9975 30.0933ZM82.2018 30.0933V36.1898C82.2018 37.3998 81.891 38.1999 81.2715 38.5864C80.65 38.9749 79.238 39.1691 77.0356 39.1691C75.2041 39.1691 74.0407 38.9438 73.5454 38.4952C73.0482 38.0465 72.8016 37.1997 72.8016 35.9587V27.2557C72.8016 25.9214 73.0502 25.0688 73.5454 24.6959C74.0407 24.323 75.3303 24.1366 77.4085 24.1366C79.4866 24.1366 80.6888 24.3774 81.2948 24.8571C81.9007 25.3388 82.2018 26.137 82.2018 27.2538V30.0933Z" fill="#AAB0B4"/>
<path d="M101.878 38.1958C101.352 38.2171 100.913 37.7957 100.913 37.2694V10.3584H94.1172V38.0851C94.1172 41.0139 96.4925 43.3892 99.4213 43.3892C100.412 43.3892 101.4 43.2688 102.362 43.0338L104.588 42.4861V38.0851L101.878 38.1958Z" fill="#AAB0B4"/>
<path d="M51.5703 25.4239H54.4137V42.9386H61.2094V20.4111H56.585C53.8174 20.4111 51.5723 22.6544 51.5723 25.4239H51.5703Z" fill="#AAB0B4"/>
</svg>
