<svg width="157" height="40" viewBox="0 0 157 40" fill="none" xmlns="http://www.w3.org/2000/svg">
<path d="M137.273 33.0001L143.673 15.6801L137.513 0.600098H143.753L147.593 9.9201L150.833 0.600098H156.393L150.473 17.2001L156.953 33.0001H150.793L146.553 22.8001L142.833 33.0001H137.273Z" fill="#FAAB21"/>
<path d="M121.854 33.0001V0.600098H135.974V5.1601H128.454V13.7601H134.254V18.3601H128.454V28.5201H136.054V33.0001H121.854Z" fill="#FAAB21"/>
<path d="M107.355 33.0001V5.5201H102.355V0.600098H118.915V5.5201H113.995V33.0001H107.355Z" fill="#FAAB21"/>
<path d="M80.4106 33.0001V0.600098H87.0107V13.9201H92.7307V0.600098H99.3307V33.0001H92.7307V18.6401H87.0107V33.0001H80.4106Z" fill="#FAAB21"/>
<path d="M57.2075 33.0001V0.600098H62.4875V20.0001L71.0475 0.600098H75.3675V33.0001H70.0075V13.2801L61.3675 33.0001H57.2075Z" fill="#FAAB21"/>
<path d="M18.2191 39.7601V28.2801H19.2191C19.8058 28.0668 20.3524 27.7201 20.8591 27.2401C21.3658 26.7334 21.8191 26.0801 22.2191 25.2801C22.6458 24.4534 23.0324 23.4268 23.3791 22.2001C23.7258 20.9734 24.0191 19.4801 24.2591 17.7201C24.4991 15.9601 24.6991 13.9068 24.8591 11.5601L25.6591 0.600098H40.4191V28.2801H43.9391V39.7601H39.4991L39.1391 33.0001H23.2191L22.8191 39.7601H18.2191ZM25.4591 28.2801H34.2191V5.3201H30.7391L30.3791 12.3601C30.2458 14.7601 30.0591 16.8001 29.8191 18.4801C29.5791 20.1601 29.2858 21.5601 28.9391 22.6801C28.6191 23.7734 28.2724 24.6668 27.8991 25.3601C27.5258 26.0534 27.1258 26.6134 26.6991 27.0401C26.2724 27.4668 25.8591 27.8801 25.4591 28.2801Z" fill="#1B1F22"/>
<path d="M5.47998 33.0001V5.5201H0.47998V0.600098H17.04V5.5201H12.12V33.0001H5.47998Z" fill="#1B1F22"/>
</svg>
